<mxfile host="app.diagrams.net" modified="2021-01-11T09:59:18.988Z" agent="5.0 (Windows)" etag="QXe9vfGMvMz6Jh2-LLob" version="14.1.8" type="github">
  <diagram id="1JJa6cUBEEBqBfRkNrkH" name="Page-1">
    <mxGraphModel dx="1038" dy="547" grid="1" gridSize="10" guides="1" tooltips="1" connect="1" arrows="1" fold="1" page="1" pageScale="1" pageWidth="1169" pageHeight="827" math="0" shadow="0">
      <root>
        <mxCell id="0" />
        <mxCell id="1" parent="0" />
        <mxCell id="zcF2YPwkhQo-STnj3zk0-1" value="PROCESSING OF PAYMENT FOR EMPLOYEES" style="swimlane;html=1;childLayout=stackLayout;resizeParent=1;resizeParentMax=0;horizontal=1;startSize=20;horizontalStack=0;" vertex="1" parent="1">
          <mxGeometry x="10" y="10" width="1150" height="570" as="geometry" />
        </mxCell>
        <mxCell id="zcF2YPwkhQo-STnj3zk0-2" value="Staff" style="swimlane;html=1;startSize=20;horizontal=0;" vertex="1" parent="zcF2YPwkhQo-STnj3zk0-1">
          <mxGeometry y="20" width="1150" height="190" as="geometry" />
        </mxCell>
        <mxCell id="zcF2YPwkhQo-STnj3zk0-6" value="Start" style="rounded=1;whiteSpace=wrap;html=1;" vertex="1" parent="zcF2YPwkhQo-STnj3zk0-2">
          <mxGeometry x="140" y="10" width="80" height="40" as="geometry" />
        </mxCell>
        <mxCell id="zcF2YPwkhQo-STnj3zk0-7" value="User fills in claim forms for processing of payments for reimbursement &amp;amp; Board allowances" style="rounded=0;whiteSpace=wrap;html=1;" vertex="1" parent="zcF2YPwkhQo-STnj3zk0-2">
          <mxGeometry x="100" y="110" width="160" height="70" as="geometry" />
        </mxCell>
        <mxCell id="zcF2YPwkhQo-STnj3zk0-9" value="" style="edgeStyle=orthogonalEdgeStyle;rounded=0;orthogonalLoop=1;jettySize=auto;html=1;entryX=0.5;entryY=0;entryDx=0;entryDy=0;" edge="1" parent="zcF2YPwkhQo-STnj3zk0-2" source="zcF2YPwkhQo-STnj3zk0-6" target="zcF2YPwkhQo-STnj3zk0-7">
          <mxGeometry relative="1" as="geometry">
            <mxPoint x="180" y="120" as="targetPoint" />
          </mxGeometry>
        </mxCell>
        <mxCell id="zcF2YPwkhQo-STnj3zk0-3" value="HoD" style="swimlane;html=1;startSize=20;horizontal=0;" vertex="1" parent="zcF2YPwkhQo-STnj3zk0-1">
          <mxGeometry y="210" width="1150" height="120" as="geometry" />
        </mxCell>
        <mxCell id="zcF2YPwkhQo-STnj3zk0-4" value="MFA" style="swimlane;html=1;startSize=20;horizontal=0;" vertex="1" parent="zcF2YPwkhQo-STnj3zk0-1">
          <mxGeometry y="330" width="1150" height="120" as="geometry" />
        </mxCell>
        <mxCell id="zcF2YPwkhQo-STnj3zk0-5" value="CEO" style="swimlane;html=1;startSize=20;horizontal=0;" vertex="1" parent="zcF2YPwkhQo-STnj3zk0-1">
          <mxGeometry y="450" width="1150" height="120" as="geometry" />
        </mxCell>
      </root>
    </mxGraphModel>
  </diagram>
</mxfile>
